<?xml version="1.0" encoding="utf-8"?>
<!-- Generator: Adobe Illustrator 27.6.1, SVG Export Plug-In . SVG Version: 6.00 Build 0)  -->
<svg version="1.1" id="Layer_1" xmlns="http://www.w3.org/2000/svg" xmlns:xlink="http://www.w3.org/1999/xlink" x="0px" y="0px"
	 viewBox="0 0 323.79 349.09" style="enable-background:new 0 0 323.79 349.09;" xml:space="preserve">
<style type="text/css">
	.st0{fill-rule:evenodd;clip-rule:evenodd;fill:#A67B5B;}
	.st1{fill-rule:evenodd;clip-rule:evenodd;fill:#EC7D30;}
	.st2{fill-rule:evenodd;clip-rule:evenodd;fill:#755740;}
</style>
<g>
	<path class="st0" d="M286.43,349.09H12.45C5.58,349.09,0,343.51,0,336.63c0-6.89,5.58-12.47,12.45-12.47h273.98
		c6.88,0,12.45,5.58,12.45,12.47C298.88,343.51,293.31,349.09,286.43,349.09L286.43,349.09z"/>
	<path class="st0" d="M261.52,149.61H37.36c-6.88,0-12.45,5.58-12.45,12.47v62.34c0,68.86,55.76,124.68,124.53,124.68
		s124.53-55.82,124.53-124.68v-62.34C273.98,155.19,268.4,149.61,261.52,149.61L261.52,149.61z M154.8,200.73
		c-33.3-15.98-72.15-15.43-104.98,1.49v-27.68h199.26v29.42C218.61,216.35,184.33,215.17,154.8,200.73L154.8,200.73z"/>
	<path class="st1" d="M143.35,132.99c-6.73,0-12.18-5.41-12.18-12.09v-6.04c0-3.34-2.73-6.05-6.09-6.05H88.56
		c-16.81,0-30.44-13.53-30.44-30.22c0-16.69,13.63-30.23,30.44-30.23h115.68c6.73,0,12.18-5.41,12.18-12.09s-5.45-12.09-12.18-12.09
		H82.47c-6.73,0-12.18-5.41-12.18-12.09S75.74,0,82.47,0h121.77c20.18,0,36.53,16.24,36.53,36.27s-16.35,36.27-36.53,36.27H88.56
		c-3.36,0-6.09,2.71-6.09,6.05c0,3.34,2.73,6.04,6.09,6.04h36.53c16.81,0,30.44,13.53,30.44,30.23v6.04
		C155.53,127.58,150.08,132.99,143.35,132.99L143.35,132.99z"/>
	<path class="st2" d="M256.54,286.76h11.21c31.13,0,56.04-24.94,56.04-56.1c0-28.68-22.42-52.37-49.81-54.86v-13.72
		c0-7.48-4.98-12.47-12.45-12.47H37.36c-7.47,0-12.45,4.99-12.45,12.47v62.34c0,41.14,19.93,77.3,49.81,99.74H12.45
		C4.98,324.16,0,329.15,0,336.63c0,7.48,4.98,12.47,12.45,12.47h273.98c7.47,0,12.45-4.99,12.45-12.47
		c0-7.48-4.98-12.47-12.45-12.47h-62.27C237.86,314.19,249.07,301.72,256.54,286.76L256.54,286.76z M298.88,230.65
		c0,17.45-13.7,31.17-31.13,31.17c3.74-11.22,6.23-24.94,6.23-37.4v-23.69C287.68,203.22,298.88,215.69,298.88,230.65L298.88,230.65
		z M249.07,174.55v29.92c-13.7,6.23-51.06,17.45-94.65-3.74c-43.59-21.2-82.19-9.98-104.61,1.25v-27.43H249.07L249.07,174.55
		L249.07,174.55z M49.81,230.65c12.45-8.73,49.81-28.68,93.4-7.48c22.41,11.22,43.59,13.72,62.27,13.72
		c17.43,0,32.38-3.74,43.59-6.23c-1.24,12.47-3.74,24.94-8.72,34.91c-1.25,1.25-2.49,3.74-2.49,4.99
		c-17.43,31.17-49.81,52.36-87.17,52.36C97.14,324.16,53.55,283.02,49.81,230.65L49.81,230.65z"/>
</g>
</svg>
